<svg width="212" height="212" viewBox="0 0 212 212" fill="none" xmlns="http://www.w3.org/2000/svg">
<rect width="212" height="212" rx="8" fill="url(#paint0_radial_45_64)" fill-opacity="0.8"/>
<rect x="1" y="1" width="210" height="210" rx="7" stroke="#0B0D0E" stroke-opacity="0.5" stroke-width="2"/>
<path d="M78.812 109.46C79.836 109.46 80.6893 109.801 81.372 110.484C82.0547 111.167 82.396 112.02 82.396 113.044C82.396 114.025 82.0547 114.857 81.372 115.54C80.6893 116.18 79.836 116.5 78.812 116.5H57.052C55.9427 116.5 55.068 116.159 54.428 115.476C53.788 114.793 53.468 113.919 53.468 112.852C53.468 111.785 53.852 110.847 54.62 110.036L68.572 95.124C70.1507 93.4173 71.388 91.668 72.284 89.876C73.2227 88.084 73.692 86.5267 73.692 85.204C73.692 83.0707 73.0733 81.364 71.836 80.084C70.5987 78.7613 68.956 78.1 66.908 78.1C66.0973 78.1 65.2653 78.292 64.412 78.676C63.5587 79.06 62.7267 79.5933 61.916 80.276C61.148 80.9587 60.4227 81.748 59.74 82.644C59.228 83.3267 58.716 83.7533 58.204 83.924C57.692 84.0947 57.2227 84.18 56.796 84.18C55.8573 84.18 54.9827 83.8387 54.172 83.156C53.404 82.4307 53.02 81.5987 53.02 80.66C53.02 79.9347 53.2547 79.2307 53.724 78.548C54.236 77.8653 54.8547 77.1613 55.58 76.436C56.6467 75.3693 57.8413 74.4307 59.164 73.62C60.4867 72.8093 61.852 72.1907 63.26 71.764C64.668 71.2947 66.0333 71.06 67.356 71.06C70.2147 71.06 72.6893 71.636 74.78 72.788C76.9133 73.8973 78.556 75.4973 79.708 77.588C80.86 79.636 81.436 82.068 81.436 84.884C81.436 87.2307 80.732 89.8547 79.324 92.756C77.9587 95.6147 76.1027 98.3027 73.756 100.82L65.116 110.036L64.412 109.46H78.812ZM105.586 117.14C101.916 117.14 98.8015 116.18 96.2415 114.26C93.7242 112.297 91.8042 109.588 90.4815 106.132C89.1588 102.633 88.4975 98.6227 88.4975 94.1C88.4975 89.5347 89.1588 85.524 90.4815 82.068C91.8042 78.612 93.7242 75.924 96.2415 74.004C98.8015 72.0413 101.916 71.06 105.586 71.06C109.255 71.06 112.348 72.0413 114.866 74.004C117.426 75.924 119.367 78.612 120.69 82.068C122.012 85.524 122.674 89.5347 122.674 94.1C122.674 98.6227 122.012 102.633 120.69 106.132C119.367 109.588 117.426 112.297 114.866 114.26C112.348 116.18 109.255 117.14 105.586 117.14ZM105.586 109.46C107.378 109.46 108.914 108.905 110.194 107.796C111.516 106.644 112.54 104.937 113.266 102.676C113.991 100.372 114.354 97.5133 114.354 94.1C114.354 90.644 113.991 87.7853 113.266 85.524C112.54 83.2627 111.516 81.5773 110.194 80.468C108.914 79.316 107.378 78.74 105.586 78.74C103.836 78.74 102.3 79.316 100.978 80.468C99.6548 81.5773 98.6308 83.2627 97.9055 85.524C97.1802 87.7853 96.8175 90.644 96.8175 94.1C96.8175 97.5133 97.1802 100.372 97.9055 102.676C98.6308 104.937 99.6548 106.644 100.978 107.796C102.3 108.905 103.836 109.46 105.586 109.46ZM131.394 98.836C130.37 98.836 129.517 98.4947 128.834 97.812C128.151 97.1293 127.81 96.276 127.81 95.252C127.81 94.228 128.151 93.396 128.834 92.756C129.517 92.116 130.37 91.796 131.394 91.796H157.442C158.466 91.796 159.319 92.1373 160.002 92.82C160.685 93.46 161.026 94.292 161.026 95.316C161.026 96.34 160.685 97.1933 160.002 97.876C159.319 98.516 158.466 98.836 157.442 98.836H131.394ZM144.322 111.316C143.127 111.316 142.125 110.932 141.314 110.164C140.546 109.396 140.162 108.415 140.162 107.22V82.26C140.162 81.0653 140.567 80.084 141.378 79.316C142.189 78.548 143.191 78.164 144.386 78.164C145.623 78.164 146.605 78.548 147.33 79.316C148.098 80.084 148.482 81.0653 148.482 82.26V107.22C148.482 108.415 148.098 109.396 147.33 110.164C146.562 110.932 145.559 111.316 144.322 111.316Z" fill="url(#paint1_linear_45_64)"/>
<path d="M48.7855 135.773H50.2812L52.5611 139.74H52.6548L54.9347 135.773H56.4304L53.2642 141.074V144.5H51.9517V141.074L48.7855 135.773ZM59.3143 144.632C58.6694 144.632 58.114 144.494 57.6481 144.219C57.185 143.94 56.8271 143.55 56.5742 143.047C56.3242 142.541 56.1992 141.949 56.1992 141.27C56.1992 140.599 56.3242 140.009 56.5742 139.497C56.8271 138.986 57.1793 138.587 57.631 138.3C58.0856 138.013 58.6168 137.869 59.2248 137.869C59.5941 137.869 59.9521 137.93 60.2987 138.053C60.6452 138.175 60.9563 138.366 61.2319 138.628C61.5075 138.889 61.7248 139.229 61.8839 139.646C62.043 140.061 62.1225 140.565 62.1225 141.159V141.611H56.9194V140.656H60.8739C60.8739 140.321 60.8058 140.024 60.6694 139.766C60.533 139.504 60.3413 139.298 60.0941 139.148C59.8498 138.997 59.5629 138.922 59.2333 138.922C58.8754 138.922 58.5629 139.01 58.2958 139.186C58.0316 139.359 57.8271 139.587 57.6822 139.868C57.5401 140.146 57.4691 140.449 57.4691 140.776V141.521C57.4691 141.959 57.5458 142.331 57.6992 142.638C57.8555 142.945 58.0728 143.179 58.3512 143.341C58.6296 143.5 58.9549 143.58 59.3271 143.58C59.5685 143.58 59.7887 143.545 59.9876 143.477C60.1864 143.406 60.3583 143.301 60.5032 143.162C60.6481 143.023 60.7589 142.851 60.8356 142.646L62.0415 142.864C61.945 143.219 61.7717 143.53 61.5217 143.797C61.2745 144.061 60.9634 144.267 60.5884 144.415C60.2163 144.56 59.7915 144.632 59.3143 144.632ZM65.4411 144.645C65.0263 144.645 64.6513 144.568 64.3161 144.415C63.9808 144.259 63.7152 144.033 63.5192 143.737C63.326 143.442 63.2294 143.08 63.2294 142.651C63.2294 142.281 63.3004 141.977 63.4425 141.739C63.5845 141.5 63.7763 141.311 64.0178 141.172C64.2592 141.033 64.5291 140.928 64.8274 140.857C65.1257 140.786 65.4297 140.732 65.7393 140.695C66.1314 140.649 66.4496 140.612 66.6939 140.584C66.9382 140.553 67.1158 140.503 67.2266 140.435C67.3374 140.366 67.3928 140.256 67.3928 140.102V140.072C67.3928 139.7 67.2876 139.412 67.0774 139.207C66.87 139.003 66.5604 138.901 66.1484 138.901C65.7195 138.901 65.3814 138.996 65.1342 139.186C64.8899 139.374 64.7209 139.582 64.6271 139.812L63.4297 139.54C63.5717 139.142 63.7791 138.821 64.0518 138.577C64.3274 138.33 64.6442 138.151 65.0021 138.04C65.3601 137.926 65.7365 137.869 66.1314 137.869C66.3928 137.869 66.6697 137.901 66.9624 137.963C67.2578 138.023 67.5334 138.134 67.7891 138.295C68.0476 138.457 68.2592 138.689 68.424 138.99C68.5888 139.288 68.6712 139.676 68.6712 140.153V144.5H67.4268V143.605H67.3757C67.2933 143.77 67.1697 143.932 67.005 144.091C66.8402 144.25 66.6286 144.382 66.37 144.487C66.1115 144.592 65.8018 144.645 65.4411 144.645ZM65.718 143.622C66.0703 143.622 66.3714 143.553 66.6214 143.413C66.8743 143.274 67.0661 143.092 67.1967 142.868C67.3303 142.641 67.397 142.398 67.397 142.139V141.295C67.3516 141.341 67.2635 141.384 67.1328 141.423C67.005 141.46 66.8587 141.493 66.6939 141.521C66.5291 141.547 66.3686 141.571 66.2124 141.594C66.0561 141.614 65.9254 141.631 65.8203 141.645C65.5732 141.676 65.3473 141.729 65.1428 141.803C64.9411 141.876 64.7791 141.983 64.657 142.122C64.5376 142.259 64.478 142.44 64.478 142.668C64.478 142.983 64.5945 143.222 64.8274 143.384C65.0604 143.543 65.3572 143.622 65.718 143.622ZM70.3683 144.5V137.955H71.5998V138.994H71.668C71.7873 138.642 71.9975 138.365 72.2987 138.163C72.6026 137.959 72.9464 137.857 73.3299 137.857C73.4094 137.857 73.5032 137.859 73.6112 137.865C73.7219 137.871 73.8086 137.878 73.8711 137.886V139.105C73.82 139.091 73.729 139.075 73.5984 139.058C73.4677 139.038 73.337 139.028 73.2063 139.028C72.9052 139.028 72.6367 139.092 72.4009 139.22C72.168 139.345 71.9833 139.52 71.8469 139.744C71.7106 139.966 71.6424 140.219 71.6424 140.503V144.5H70.3683ZM79.8786 139.553L78.7237 139.757C78.6754 139.609 78.5987 139.469 78.4936 139.335C78.3913 139.202 78.2521 139.092 78.076 139.007C77.8999 138.922 77.6797 138.879 77.4155 138.879C77.0547 138.879 76.7536 138.96 76.5121 139.122C76.2706 139.281 76.1499 139.487 76.1499 139.74C76.1499 139.959 76.2308 140.135 76.3928 140.268C76.5547 140.402 76.8161 140.511 77.1768 140.597L78.2166 140.835C78.8189 140.974 79.2678 141.189 79.5632 141.479C79.8587 141.768 80.0064 142.145 80.0064 142.608C80.0064 143 79.8928 143.349 79.6655 143.656C79.4411 143.96 79.1271 144.199 78.7237 144.372C78.3232 144.545 77.8587 144.632 77.3303 144.632C76.5973 144.632 75.9993 144.476 75.5362 144.163C75.0732 143.848 74.7891 143.401 74.6839 142.821L75.9155 142.634C75.9922 142.955 76.1499 143.197 76.3885 143.362C76.6271 143.524 76.9382 143.605 77.3217 143.605C77.7393 143.605 78.0732 143.518 78.3232 143.345C78.5732 143.169 78.6982 142.955 78.6982 142.702C78.6982 142.497 78.6214 142.325 78.468 142.186C78.3175 142.047 78.0859 141.942 77.7734 141.871L76.6655 141.628C76.0547 141.489 75.603 141.267 75.3104 140.963C75.0206 140.659 74.8757 140.274 74.8757 139.808C74.8757 139.422 74.9837 139.084 75.1996 138.794C75.4155 138.504 75.7138 138.278 76.0945 138.116C76.4751 137.952 76.9112 137.869 77.4027 137.869C78.1101 137.869 78.6669 138.023 79.0732 138.33C79.4794 138.634 79.7479 139.041 79.8786 139.553ZM87.3402 144.632C86.7266 144.632 86.1911 144.491 85.7337 144.21C85.2763 143.929 84.9212 143.536 84.6683 143.03C84.4155 142.524 84.2891 141.933 84.2891 141.257C84.2891 140.578 84.4155 139.984 84.6683 139.476C84.9212 138.967 85.2763 138.572 85.7337 138.291C86.1911 138.01 86.7266 137.869 87.3402 137.869C87.9538 137.869 88.4893 138.01 88.9467 138.291C89.4041 138.572 89.7592 138.967 90.0121 139.476C90.2649 139.984 90.3913 140.578 90.3913 141.257C90.3913 141.933 90.2649 142.524 90.0121 143.03C89.7592 143.536 89.4041 143.929 88.9467 144.21C88.4893 144.491 87.9538 144.632 87.3402 144.632ZM87.3445 143.562C87.7422 143.562 88.0717 143.457 88.3331 143.247C88.5945 143.037 88.7876 142.757 88.9126 142.408C89.0405 142.058 89.1044 141.673 89.1044 141.253C89.1044 140.835 89.0405 140.452 88.9126 140.102C88.7876 139.75 88.5945 139.467 88.3331 139.254C88.0717 139.041 87.7422 138.935 87.3445 138.935C86.9439 138.935 86.6115 139.041 86.3473 139.254C86.0859 139.467 85.8913 139.75 85.7635 140.102C85.6385 140.452 85.576 140.835 85.576 141.253C85.576 141.673 85.6385 142.058 85.7635 142.408C85.8913 142.757 86.0859 143.037 86.3473 143.247C86.6115 143.457 86.9439 143.562 87.3445 143.562ZM94.9286 137.955V138.977H91.2298V137.955H94.9286ZM92.244 144.5V137.196C92.244 136.787 92.3335 136.447 92.5124 136.178C92.6914 135.905 92.9286 135.702 93.2241 135.568C93.5195 135.432 93.8406 135.364 94.1871 135.364C94.4428 135.364 94.6616 135.385 94.8434 135.428C95.0252 135.467 95.1602 135.504 95.2482 135.538L94.9499 136.57C94.8903 136.553 94.8136 136.533 94.7198 136.51C94.6261 136.484 94.5124 136.472 94.3789 136.472C94.0692 136.472 93.8477 136.548 93.7141 136.702C93.5835 136.855 93.5181 137.077 93.5181 137.366V144.5H92.244ZM99.5213 144.5V135.773H104.993V136.906H100.838V139.565H104.707V140.695H100.838V143.366H105.044V144.5H99.5213ZM107.655 137.955L109.1 140.503L110.557 137.955H111.951L109.909 141.227L111.968 144.5H110.574L109.1 142.054L107.63 144.5H106.232L108.269 141.227L106.257 137.955H107.655ZM113.259 146.955V137.955H114.503V139.016H114.61C114.684 138.879 114.79 138.722 114.929 138.543C115.069 138.364 115.262 138.207 115.509 138.074C115.756 137.938 116.083 137.869 116.489 137.869C117.017 137.869 117.489 138.003 117.904 138.27C118.319 138.537 118.644 138.922 118.88 139.425C119.118 139.928 119.238 140.533 119.238 141.24C119.238 141.947 119.12 142.554 118.884 143.06C118.648 143.562 118.324 143.95 117.912 144.223C117.5 144.493 117.03 144.628 116.502 144.628C116.104 144.628 115.779 144.561 115.526 144.428C115.276 144.294 115.08 144.138 114.938 143.959C114.796 143.78 114.686 143.621 114.61 143.482H114.533V146.955H113.259ZM114.507 141.227C114.507 141.687 114.574 142.091 114.708 142.438C114.841 142.784 115.034 143.055 115.287 143.251C115.54 143.445 115.85 143.541 116.216 143.541C116.597 143.541 116.915 143.44 117.171 143.239C117.426 143.034 117.62 142.757 117.75 142.408C117.884 142.058 117.951 141.665 117.951 141.227C117.951 140.795 117.885 140.408 117.755 140.064C117.627 139.72 117.434 139.449 117.175 139.25C116.919 139.051 116.6 138.952 116.216 138.952C115.847 138.952 115.534 139.047 115.279 139.237C115.026 139.428 114.834 139.693 114.703 140.034C114.573 140.375 114.507 140.773 114.507 141.227ZM123.486 144.632C122.841 144.632 122.286 144.494 121.82 144.219C121.357 143.94 120.999 143.55 120.746 143.047C120.496 142.541 120.371 141.949 120.371 141.27C120.371 140.599 120.496 140.009 120.746 139.497C120.999 138.986 121.351 138.587 121.803 138.3C122.257 138.013 122.789 137.869 123.397 137.869C123.766 137.869 124.124 137.93 124.471 138.053C124.817 138.175 125.128 138.366 125.404 138.628C125.679 138.889 125.897 139.229 126.056 139.646C126.215 140.061 126.294 140.565 126.294 141.159V141.611H121.091V140.656H125.046C125.046 140.321 124.978 140.024 124.841 139.766C124.705 139.504 124.513 139.298 124.266 139.148C124.022 138.997 123.735 138.922 123.405 138.922C123.047 138.922 122.735 139.01 122.468 139.186C122.203 139.359 121.999 139.587 121.854 139.868C121.712 140.146 121.641 140.449 121.641 140.776V141.521C121.641 141.959 121.718 142.331 121.871 142.638C122.027 142.945 122.245 143.179 122.523 143.341C122.801 143.5 123.127 143.58 123.499 143.58C123.74 143.58 123.961 143.545 124.159 143.477C124.358 143.406 124.53 143.301 124.675 143.162C124.82 143.023 124.931 142.851 125.007 142.646L126.213 142.864C126.117 143.219 125.944 143.53 125.694 143.797C125.446 144.061 125.135 144.267 124.76 144.415C124.388 144.56 123.963 144.632 123.486 144.632ZM127.708 144.5V137.955H128.94V138.994H129.008C129.127 138.642 129.337 138.365 129.638 138.163C129.942 137.959 130.286 137.857 130.67 137.857C130.749 137.857 130.843 137.859 130.951 137.865C131.062 137.871 131.148 137.878 131.211 137.886V139.105C131.16 139.091 131.069 139.075 130.938 139.058C130.808 139.038 130.677 139.028 130.546 139.028C130.245 139.028 129.977 139.092 129.741 139.22C129.508 139.345 129.323 139.52 129.187 139.744C129.05 139.966 128.982 140.219 128.982 140.503V144.5H127.708ZM132.314 144.5V137.955H133.588V144.5H132.314ZM132.957 136.945C132.735 136.945 132.545 136.871 132.386 136.723C132.23 136.572 132.152 136.393 132.152 136.186C132.152 135.976 132.23 135.797 132.386 135.649C132.545 135.499 132.735 135.423 132.957 135.423C133.179 135.423 133.368 135.499 133.524 135.649C133.683 135.797 133.762 135.976 133.762 136.186C133.762 136.393 133.683 136.572 133.524 136.723C133.368 136.871 133.179 136.945 132.957 136.945ZM138.123 144.632C137.478 144.632 136.923 144.494 136.457 144.219C135.994 143.94 135.636 143.55 135.383 143.047C135.133 142.541 135.008 141.949 135.008 141.27C135.008 140.599 135.133 140.009 135.383 139.497C135.636 138.986 135.988 138.587 136.44 138.3C136.894 138.013 137.425 137.869 138.033 137.869C138.403 137.869 138.761 137.93 139.107 138.053C139.454 138.175 139.765 138.366 140.04 138.628C140.316 138.889 140.533 139.229 140.692 139.646C140.852 140.061 140.931 140.565 140.931 141.159V141.611H135.728V140.656H139.683C139.683 140.321 139.614 140.024 139.478 139.766C139.342 139.504 139.15 139.298 138.903 139.148C138.658 138.997 138.371 138.922 138.042 138.922C137.684 138.922 137.371 139.01 137.104 139.186C136.84 139.359 136.636 139.587 136.491 139.868C136.349 140.146 136.278 140.449 136.278 140.776V141.521C136.278 141.959 136.354 142.331 136.508 142.638C136.664 142.945 136.881 143.179 137.16 143.341C137.438 143.5 137.763 143.58 138.136 143.58C138.377 143.58 138.597 143.545 138.796 143.477C138.995 143.406 139.167 143.301 139.312 143.162C139.457 143.023 139.567 142.851 139.644 142.646L140.85 142.864C140.754 143.219 140.58 143.53 140.33 143.797C140.083 144.061 139.772 144.267 139.397 144.415C139.025 144.56 138.6 144.632 138.123 144.632ZM143.619 140.614V144.5H142.345V137.955H143.568V139.02H143.649C143.799 138.673 144.035 138.395 144.356 138.185C144.68 137.974 145.088 137.869 145.579 137.869C146.025 137.869 146.416 137.963 146.751 138.151C147.086 138.335 147.346 138.611 147.531 138.977C147.716 139.344 147.808 139.797 147.808 140.337V144.5H146.534V140.49C146.534 140.016 146.41 139.645 146.163 139.378C145.916 139.108 145.576 138.973 145.145 138.973C144.849 138.973 144.586 139.037 144.356 139.165C144.129 139.293 143.949 139.48 143.815 139.727C143.684 139.972 143.619 140.267 143.619 140.614ZM152.274 144.632C151.64 144.632 151.095 144.489 150.637 144.202C150.183 143.912 149.833 143.513 149.589 143.004C149.345 142.496 149.223 141.913 149.223 141.257C149.223 140.592 149.348 140.006 149.598 139.497C149.848 138.986 150.2 138.587 150.654 138.3C151.109 138.013 151.645 137.869 152.261 137.869C152.758 137.869 153.201 137.962 153.591 138.146C153.98 138.328 154.294 138.584 154.532 138.913C154.774 139.243 154.917 139.628 154.963 140.068H153.723C153.654 139.761 153.498 139.497 153.254 139.276C153.012 139.054 152.689 138.943 152.282 138.943C151.927 138.943 151.616 139.037 151.349 139.224C151.085 139.409 150.879 139.673 150.731 140.017C150.583 140.358 150.51 140.761 150.51 141.227C150.51 141.705 150.582 142.116 150.727 142.463C150.872 142.81 151.076 143.078 151.341 143.268C151.608 143.459 151.922 143.554 152.282 143.554C152.524 143.554 152.743 143.51 152.939 143.422C153.137 143.331 153.304 143.202 153.437 143.034C153.574 142.866 153.669 142.665 153.723 142.429H154.963C154.917 142.852 154.779 143.23 154.549 143.562C154.319 143.895 154.011 144.156 153.625 144.347C153.241 144.537 152.791 144.632 152.274 144.632ZM159.146 144.632C158.501 144.632 157.946 144.494 157.48 144.219C157.017 143.94 156.659 143.55 156.406 143.047C156.156 142.541 156.031 141.949 156.031 141.27C156.031 140.599 156.156 140.009 156.406 139.497C156.659 138.986 157.011 138.587 157.463 138.3C157.918 138.013 158.449 137.869 159.057 137.869C159.426 137.869 159.784 137.93 160.131 138.053C160.477 138.175 160.788 138.366 161.064 138.628C161.339 138.889 161.557 139.229 161.716 139.646C161.875 140.061 161.955 140.565 161.955 141.159V141.611H156.751V140.656H160.706C160.706 140.321 160.638 140.024 160.501 139.766C160.365 139.504 160.173 139.298 159.926 139.148C159.682 138.997 159.395 138.922 159.065 138.922C158.707 138.922 158.395 139.01 158.128 139.186C157.864 139.359 157.659 139.587 157.514 139.868C157.372 140.146 157.301 140.449 157.301 140.776V141.521C157.301 141.959 157.378 142.331 157.531 142.638C157.688 142.945 157.905 143.179 158.183 143.341C158.462 143.5 158.787 143.58 159.159 143.58C159.401 143.58 159.621 143.545 159.82 143.477C160.018 143.406 160.19 143.301 160.335 143.162C160.48 143.023 160.591 142.851 160.668 142.646L161.874 142.864C161.777 143.219 161.604 143.53 161.354 143.797C161.107 144.061 160.795 144.267 160.42 144.415C160.048 144.56 159.624 144.632 159.146 144.632Z" fill="white"/>
<defs>
<radialGradient id="paint0_radial_45_64" cx="0" cy="0" r="1" gradientUnits="userSpaceOnUse" gradientTransform="translate(212 2.52724e-05) rotate(135) scale(299.813 299.813)">
<stop stop-color="#45A4ED" stop-opacity="0.5"/>
<stop offset="1" stop-color="#0B0D0E" stop-opacity="0.5"/>
</radialGradient>
<linearGradient id="paint1_linear_45_64" x1="49.5" y1="92.5" x2="162.5" y2="92.5" gradientUnits="userSpaceOnUse">
<stop stop-color="#74BBF1"/>
<stop offset="1" stop-color="#F5A3B5"/>
</linearGradient>
</defs>
</svg>
