<svg width="212" height="212" viewBox="0 0 212 212" fill="none" xmlns="http://www.w3.org/2000/svg">
<rect width="212" height="212" rx="8" fill="url(#paint0_radial_47_68)" fill-opacity="0.8"/>
<rect x="1" y="1" width="210" height="210" rx="7" stroke="#0B0D0E" stroke-opacity="0.5" stroke-width="2"/>
<path d="M97.5877 46.994L93.605 36.0517C93.4403 35.5992 93.358 35.373 93.3735 35.1595C93.3872 34.9713 93.4538 34.7909 93.5657 34.639C93.6927 34.4667 93.9023 34.3482 94.3216 34.1114L102.089 29.7234C102.655 29.4038 102.938 29.244 103.204 29.2457C103.438 29.2473 103.664 29.3307 103.843 29.4815C104.046 29.6533 104.157 29.9586 104.38 30.5693L108.18 41.0104M97.5877 46.994C98.1544 48.551 97.3516 50.2725 95.7947 50.8392C94.2378 51.4059 92.5162 50.6031 91.9496 49.0462C91.3829 47.4892 92.1856 45.7677 93.7426 45.201C95.2995 44.6344 97.021 45.4371 97.5877 46.994ZM108.18 41.0104C108.747 42.5674 107.944 44.2889 106.387 44.8556C104.83 45.4222 103.109 44.6195 102.542 43.0625C101.975 41.5056 102.778 39.7841 104.335 39.2174C105.892 38.6507 107.613 39.4535 108.18 41.0104ZM118.766 47.5656L114.521 35.903C114.228 35.0974 114.081 34.6947 114.163 34.3904C114.234 34.1246 114.411 33.8999 114.653 33.7691C114.93 33.6192 115.356 33.6682 116.208 33.7662L120.3 34.2372M118.766 47.5656C119.333 49.1226 118.53 50.8441 116.973 51.4108C115.416 51.9774 113.695 51.1747 113.128 49.6177C112.561 48.0608 113.364 46.3393 114.921 45.7726C116.478 45.2059 118.199 46.0087 118.766 47.5656Z" stroke="#45A4ED" stroke-opacity="0.5" stroke-width="2" stroke-linecap="round" stroke-linejoin="round"/>
<path d="M42.196 70.2321C43.412 70.2321 44.468 70.3601 45.364 70.6161C46.2813 70.8721 46.9853 71.2348 47.476 71.7041C47.988 72.1521 48.244 72.6961 48.244 73.3361C48.244 73.7628 48.116 74.1681 47.86 74.5521C47.604 74.9148 47.2307 75.0961 46.74 75.0961C46.3987 75.0961 46.1107 75.0535 45.876 74.9681C45.6627 74.8615 45.4707 74.7335 45.3 74.5841C45.1293 74.4348 44.9267 74.2961 44.692 74.1681C44.4787 74.0401 44.148 73.9441 43.7 73.8801C43.2733 73.7948 42.9533 73.7521 42.74 73.7521C41.652 73.7521 40.724 73.9868 39.956 74.4561C39.2093 74.9255 38.6333 75.5655 38.228 76.3761C37.8227 77.1655 37.62 78.0828 37.62 79.1281C37.62 80.1521 37.8227 81.0695 38.228 81.8801C38.6547 82.6695 39.2307 83.2988 39.956 83.7681C40.7027 84.2375 41.556 84.4721 42.516 84.4721C43.0493 84.4721 43.508 84.4401 43.892 84.3761C44.276 84.3121 44.596 84.2161 44.852 84.0881C45.1507 83.9175 45.4173 83.7361 45.652 83.5441C45.8867 83.3521 46.2387 83.2561 46.708 83.2561C47.2627 83.2561 47.6893 83.4375 47.988 83.8001C48.2867 84.1415 48.436 84.5681 48.436 85.0801C48.436 85.6135 48.1373 86.1041 47.54 86.5521C46.9427 86.9788 46.1533 87.3308 45.172 87.6081C44.212 87.8641 43.1667 87.9921 42.036 87.9921C40.3507 87.9921 38.8893 87.6081 37.652 86.8401C36.4147 86.0508 35.4547 84.9841 34.772 83.6401C34.1107 82.2961 33.78 80.7921 33.78 79.1281C33.78 77.3788 34.132 75.8428 34.836 74.5201C35.5613 73.1761 36.5533 72.1308 37.812 71.3841C39.092 70.6161 40.5533 70.2321 42.196 70.2321ZM53.125 87.6721C52.5703 87.6721 52.1117 87.4908 51.749 87.1281C51.3863 86.7441 51.205 86.2748 51.205 85.7201V72.5041C51.205 71.9495 51.3863 71.4908 51.749 71.1281C52.1117 70.7441 52.5703 70.5521 53.125 70.5521C53.6797 70.5521 54.1383 70.7441 54.501 71.1281C54.8637 71.4908 55.045 71.9495 55.045 72.5041V75.5121L54.821 73.3681C55.0557 72.8561 55.3543 72.4081 55.717 72.0241C56.101 71.6188 56.5277 71.2881 56.997 71.0321C57.4663 70.7548 57.9677 70.5521 58.501 70.4241C59.0343 70.2961 59.5677 70.2321 60.101 70.2321C60.741 70.2321 61.2743 70.4135 61.701 70.7761C62.149 71.1388 62.373 71.5655 62.373 72.0561C62.373 72.7601 62.1917 73.2721 61.829 73.5921C61.4663 73.8908 61.0717 74.0401 60.645 74.0401C60.2397 74.0401 59.8663 73.9655 59.525 73.8161C59.205 73.6668 58.8317 73.5921 58.405 73.5921C58.021 73.5921 57.6263 73.6881 57.221 73.8801C56.837 74.0508 56.4743 74.3281 56.133 74.7121C55.813 75.0961 55.5463 75.5761 55.333 76.1521C55.141 76.7068 55.045 77.3681 55.045 78.1361V85.7201C55.045 86.2748 54.8637 86.7441 54.501 87.1281C54.1383 87.4908 53.6797 87.6721 53.125 87.6721ZM72.4253 87.9921C70.6119 87.9921 69.0333 87.6188 67.6893 86.8721C66.3666 86.1041 65.3426 85.0695 64.6173 83.7681C63.9133 82.4668 63.5613 80.9948 63.5613 79.3521C63.5613 77.4321 63.9453 75.8001 64.7133 74.4561C65.5026 73.0908 66.5266 72.0455 67.7853 71.3201C69.0439 70.5948 70.3773 70.2321 71.7853 70.2321C72.8733 70.2321 73.8973 70.4561 74.8573 70.9041C75.8386 71.3521 76.7026 71.9708 77.4493 72.7601C78.1959 73.5281 78.7826 74.4241 79.2093 75.4481C79.6573 76.4721 79.8813 77.5601 79.8813 78.7121C79.8599 79.2241 79.6573 79.6401 79.2733 79.9601C78.8893 80.2801 78.4413 80.4401 77.9293 80.4401H65.7053L64.7453 77.2401H76.4893L75.7853 77.8801V77.0161C75.7426 76.3975 75.5186 75.8428 75.1133 75.3521C74.7293 74.8615 74.2386 74.4775 73.6413 74.2001C73.0653 73.9015 72.4466 73.7521 71.7853 73.7521C71.1453 73.7521 70.5479 73.8375 69.9933 74.0081C69.4386 74.1788 68.9586 74.4668 68.5533 74.8721C68.1479 75.2775 67.8279 75.8215 67.5933 76.5041C67.3586 77.1868 67.2413 78.0508 67.2413 79.0961C67.2413 80.2481 67.4759 81.2295 67.9453 82.0401C68.4359 82.8295 69.0546 83.4375 69.8013 83.8641C70.5693 84.2695 71.3799 84.4721 72.2333 84.4721C73.0226 84.4721 73.6519 84.4081 74.1213 84.2801C74.5906 84.1521 74.9639 84.0028 75.2413 83.8321C75.5399 83.6401 75.8066 83.4801 76.0413 83.3521C76.4253 83.1601 76.7879 83.0641 77.1293 83.0641C77.5986 83.0641 77.9826 83.2241 78.2812 83.5441C78.6013 83.8641 78.7613 84.2375 78.7613 84.6641C78.7613 85.2401 78.4626 85.7628 77.8653 86.2321C77.3106 86.7015 76.5319 87.1175 75.5293 87.4801C74.5266 87.8215 73.4919 87.9921 72.4253 87.9921ZM97.3773 70.2321C97.9319 70.2321 98.3906 70.4135 98.7533 70.7761C99.1159 71.1388 99.2973 71.6081 99.2973 72.1841V85.7201C99.2973 86.2748 99.1159 86.7441 98.7533 87.1281C98.3906 87.4908 97.9319 87.6721 97.3773 87.6721C96.8226 87.6721 96.3639 87.4908 96.0013 87.1281C95.6386 86.7441 95.4573 86.2748 95.4573 85.7201V84.1521L96.1613 84.4401C96.1613 84.7175 96.0119 85.0588 95.7133 85.4641C95.4146 85.8481 95.0093 86.2321 94.4973 86.6161C93.9853 87.0001 93.3773 87.3308 92.6733 87.6081C91.9906 87.8641 91.2439 87.9921 90.4333 87.9921C88.9613 87.9921 87.6279 87.6188 86.4333 86.8721C85.2386 86.1041 84.2893 85.0588 83.5853 83.7361C82.9026 82.3921 82.5613 80.8561 82.5613 79.1281C82.5613 77.3788 82.9026 75.8428 83.5853 74.5201C84.2893 73.1761 85.2279 72.1308 86.4013 71.3841C87.5746 70.6161 88.8759 70.2321 90.3053 70.2321C91.2226 70.2321 92.0653 70.3708 92.8333 70.6481C93.6013 70.9255 94.2626 71.2775 94.8173 71.7041C95.3933 72.1308 95.8306 72.5681 96.1293 73.0161C96.4493 73.4428 96.6093 73.8055 96.6093 74.1041L95.4573 74.5201V72.1841C95.4573 71.6295 95.6386 71.1708 96.0013 70.8081C96.3639 70.4241 96.8226 70.2321 97.3773 70.2321ZM90.9133 84.4721C91.8519 84.4721 92.6733 84.2375 93.3773 83.7681C94.0813 83.2988 94.6253 82.6588 95.0093 81.8481C95.4146 81.0375 95.6173 80.1308 95.6173 79.1281C95.6173 78.1041 95.4146 77.1868 95.0093 76.3761C94.6253 75.5655 94.0813 74.9255 93.3773 74.4561C92.6733 73.9868 91.8519 73.7521 90.9133 73.7521C89.9959 73.7521 89.1853 73.9868 88.4813 74.4561C87.7773 74.9255 87.2226 75.5655 86.8173 76.3761C86.4333 77.1868 86.2413 78.1041 86.2413 79.1281C86.2413 80.1308 86.4333 81.0375 86.8173 81.8481C87.2226 82.6588 87.7773 83.2988 88.4813 83.7681C89.1853 84.2375 89.9959 84.4721 90.9133 84.4721ZM103.647 70.8721H111.231C111.743 70.8721 112.17 71.0428 112.511 71.3841C112.852 71.7255 113.023 72.1521 113.023 72.6641C113.023 73.1548 112.852 73.5708 112.511 73.9121C112.17 74.2321 111.743 74.3921 111.231 74.3921H103.647C103.135 74.3921 102.708 74.2215 102.367 73.8801C102.026 73.5388 101.855 73.1121 101.855 72.6001C101.855 72.1095 102.026 71.7041 102.367 71.3841C102.708 71.0428 103.135 70.8721 103.647 70.8721ZM107.071 66.8721C107.626 66.8721 108.074 67.0641 108.415 67.4481C108.778 67.8108 108.959 68.2695 108.959 68.8241V83.0641C108.959 83.3628 109.012 83.6081 109.119 83.8001C109.247 83.9921 109.407 84.1308 109.599 84.2161C109.812 84.3015 110.036 84.3441 110.271 84.3441C110.527 84.3441 110.762 84.3015 110.975 84.2161C111.188 84.1095 111.434 84.0561 111.711 84.0561C112.01 84.0561 112.276 84.1948 112.511 84.4721C112.767 84.7495 112.895 85.1335 112.895 85.6241C112.895 86.2215 112.564 86.7121 111.903 87.0961C111.263 87.4801 110.57 87.6721 109.823 87.6721C109.375 87.6721 108.874 87.6401 108.319 87.5761C107.786 87.4908 107.274 87.3095 106.783 87.0321C106.314 86.7335 105.919 86.2855 105.599 85.6881C105.279 85.0908 105.119 84.2695 105.119 83.2241V68.8241C105.119 68.2695 105.3 67.8108 105.663 67.4481C106.047 67.0641 106.516 66.8721 107.071 66.8721ZM120.165 85.7201C120.165 86.2748 119.983 86.7441 119.621 87.1281C119.258 87.4908 118.799 87.6721 118.245 87.6721C117.69 87.6721 117.231 87.4908 116.869 87.1281C116.506 86.7441 116.325 86.2748 116.325 85.7201V72.5041C116.325 71.9495 116.506 71.4908 116.869 71.1281C117.231 70.7441 117.69 70.5521 118.245 70.5521C118.799 70.5521 119.258 70.7441 119.621 71.1281C119.983 71.4908 120.165 71.9495 120.165 72.5041V85.7201ZM118.213 68.4721C117.487 68.4721 116.975 68.3548 116.677 68.1201C116.378 67.8855 116.229 67.4695 116.229 66.8721V66.2641C116.229 65.6455 116.389 65.2295 116.709 65.0161C117.05 64.7815 117.562 64.6641 118.245 64.6641C118.991 64.6641 119.514 64.7815 119.813 65.0161C120.111 65.2508 120.261 65.6668 120.261 66.2641V66.8721C120.261 67.4908 120.101 67.9175 119.781 68.1521C119.461 68.3655 118.938 68.4721 118.213 68.4721ZM124.879 70.5521C125.285 70.5521 125.658 70.6588 125.999 70.8721C126.341 71.0641 126.597 71.3628 126.767 71.7681L131.471 82.5201L130.767 82.8401L135.567 71.8001C135.93 70.9468 136.495 70.5415 137.263 70.5841C137.797 70.5841 138.223 70.7548 138.543 71.0961C138.885 71.4161 139.055 71.8215 139.055 72.3121C139.055 72.4615 139.023 72.6215 138.959 72.7921C138.917 72.9628 138.863 73.1228 138.799 73.2721L132.815 86.4561C132.474 87.2241 131.93 87.6295 131.183 87.6721C130.778 87.7361 130.383 87.6615 129.999 87.4481C129.637 87.2348 129.359 86.9041 129.167 86.4561L123.215 73.2721C123.173 73.1655 123.119 73.0268 123.055 72.8561C123.013 72.6855 122.991 72.4828 122.991 72.2481C122.991 71.8641 123.162 71.4908 123.503 71.1281C123.845 70.7441 124.303 70.5521 124.879 70.5521ZM145.696 85.7201C145.696 86.2748 145.515 86.7441 145.152 87.1281C144.789 87.4908 144.331 87.6721 143.776 87.6721C143.221 87.6721 142.763 87.4908 142.4 87.1281C142.037 86.7441 141.856 86.2748 141.856 85.7201V72.5041C141.856 71.9495 142.037 71.4908 142.4 71.1281C142.763 70.7441 143.221 70.5521 143.776 70.5521C144.331 70.5521 144.789 70.7441 145.152 71.1281C145.515 71.4908 145.696 71.9495 145.696 72.5041V85.7201ZM143.744 68.4721C143.019 68.4721 142.507 68.3548 142.208 68.1201C141.909 67.8855 141.76 67.4695 141.76 66.8721V66.2641C141.76 65.6455 141.92 65.2295 142.24 65.0161C142.581 64.7815 143.093 64.6641 143.776 64.6641C144.523 64.6641 145.045 64.7815 145.344 65.0161C145.643 65.2508 145.792 65.6668 145.792 66.2641V66.8721C145.792 67.4908 145.632 67.9175 145.312 68.1521C144.992 68.3655 144.469 68.4721 143.744 68.4721ZM149.835 70.8721H157.419C157.931 70.8721 158.357 71.0428 158.699 71.3841C159.04 71.7255 159.211 72.1521 159.211 72.6641C159.211 73.1548 159.04 73.5708 158.699 73.9121C158.357 74.2321 157.931 74.3921 157.419 74.3921H149.835C149.323 74.3921 148.896 74.2215 148.555 73.8801C148.213 73.5388 148.043 73.1121 148.043 72.6001C148.043 72.1095 148.213 71.7041 148.555 71.3841C148.896 71.0428 149.323 70.8721 149.835 70.8721ZM153.259 66.8721C153.813 66.8721 154.261 67.0641 154.603 67.4481C154.965 67.8108 155.147 68.2695 155.147 68.8241V83.0641C155.147 83.3628 155.2 83.6081 155.307 83.8001C155.435 83.9921 155.595 84.1308 155.786 84.2161C156 84.3015 156.224 84.3441 156.459 84.3441C156.715 84.3441 156.949 84.3015 157.163 84.2161C157.376 84.1095 157.621 84.0561 157.899 84.0561C158.197 84.0561 158.464 84.1948 158.699 84.4721C158.955 84.7495 159.083 85.1335 159.083 85.6241C159.083 86.2215 158.752 86.7121 158.091 87.0961C157.451 87.4801 156.757 87.6721 156.01 87.6721C155.563 87.6721 155.061 87.6401 154.507 87.5761C153.973 87.4908 153.461 87.3095 152.971 87.0321C152.501 86.7335 152.106 86.2855 151.786 85.6881C151.467 85.0908 151.307 84.2695 151.307 83.2241V68.8241C151.307 68.2695 151.488 67.8108 151.851 67.4481C152.235 67.0641 152.704 66.8721 153.259 66.8721ZM175.44 70.5521C175.995 70.5521 176.454 70.7441 176.816 71.1281C177.179 71.4908 177.36 71.9495 177.36 72.5041V86.1041C177.36 88.0668 176.987 89.6241 176.24 90.7761C175.515 91.9495 174.534 92.7921 173.296 93.3041C172.059 93.8161 170.672 94.0721 169.136 94.0721C168.454 94.0721 167.728 94.0188 166.96 93.9121C166.192 93.8055 165.563 93.6455 165.072 93.4321C164.432 93.1548 163.984 92.8028 163.728 92.3761C163.494 91.9708 163.451 91.5335 163.6 91.0641C163.792 90.4455 164.102 90.0188 164.528 89.7841C164.955 89.5708 165.403 89.5495 165.872 89.7201C166.214 89.8268 166.662 89.9868 167.216 90.2001C167.771 90.4348 168.411 90.5521 169.136 90.5521C170.118 90.5521 170.928 90.4135 171.568 90.1361C172.23 89.8801 172.72 89.4321 173.04 88.7921C173.382 88.1735 173.552 87.3201 173.552 86.2321V84.0881L174.224 84.8561C173.862 85.5601 173.403 86.1468 172.848 86.6161C172.315 87.0641 171.675 87.4055 170.928 87.6401C170.182 87.8748 169.328 87.9921 168.368 87.9921C167.238 87.9921 166.246 87.7361 165.392 87.2241C164.56 86.6908 163.91 85.9655 163.44 85.0481C162.971 84.1095 162.736 83.0428 162.736 81.8481V72.5041C162.736 71.9495 162.918 71.4908 163.28 71.1281C163.643 70.7441 164.102 70.5521 164.656 70.5521C165.211 70.5521 165.67 70.7441 166.032 71.1281C166.395 71.4908 166.576 71.9495 166.576 72.5041V80.6961C166.576 82.0828 166.875 83.0641 167.472 83.6401C168.091 84.1948 168.944 84.4721 170.032 84.4721C170.779 84.4721 171.408 84.3335 171.92 84.0561C172.432 83.7575 172.827 83.3308 173.104 82.7761C173.382 82.2001 173.52 81.5068 173.52 80.6961V72.5041C173.52 71.9495 173.702 71.4908 174.064 71.1281C174.427 70.7441 174.886 70.5521 175.44 70.5521Z" fill="white"/>
<path d="M105.396 107.796C104.811 107.796 104.307 107.689 103.884 107.476C103.463 107.263 103.139 106.973 102.912 106.607C102.685 106.237 102.571 105.82 102.571 105.354C102.571 104.999 102.645 104.683 102.793 104.408C102.94 104.13 103.146 103.872 103.411 103.637C103.675 103.401 103.98 103.164 104.327 102.925L105.733 101.932C105.972 101.776 106.158 101.611 106.291 101.438C106.425 101.262 106.491 101.044 106.491 100.786C106.491 100.581 106.403 100.385 106.227 100.198C106.051 100.01 105.815 99.9164 105.52 99.9164C105.315 99.9164 105.135 99.9662 104.979 100.066C104.825 100.165 104.705 100.293 104.616 100.449C104.531 100.603 104.489 100.764 104.489 100.935C104.489 101.134 104.543 101.334 104.651 101.536C104.761 101.737 104.903 101.946 105.077 102.162C105.25 102.375 105.432 102.597 105.622 102.827L109.675 107.672H108.234L104.881 103.73C104.599 103.398 104.338 103.085 104.097 102.793C103.855 102.497 103.659 102.199 103.509 101.898C103.361 101.594 103.287 101.266 103.287 100.914C103.287 100.513 103.378 100.158 103.56 99.8483C103.744 99.5358 104.001 99.2914 104.331 99.1153C104.661 98.9392 105.047 98.8511 105.49 98.8511C105.939 98.8511 106.324 98.9392 106.645 99.1153C106.969 99.2886 107.217 99.5201 107.391 99.8099C107.567 100.097 107.655 100.411 107.655 100.752C107.655 101.166 107.551 101.533 107.344 101.851C107.139 102.166 106.857 102.456 106.496 102.72L104.744 104.012C104.403 104.262 104.166 104.509 104.033 104.753C103.902 104.995 103.837 105.183 103.837 105.32C103.837 105.57 103.901 105.801 104.028 106.014C104.159 106.228 104.341 106.398 104.574 106.526C104.81 106.654 105.085 106.718 105.401 106.718C105.724 106.718 106.04 106.648 106.347 106.509C106.656 106.367 106.936 106.164 107.186 105.899C107.439 105.635 107.639 105.318 107.787 104.949C107.935 104.58 108.009 104.166 108.009 103.709H109.159C109.159 104.272 109.095 104.747 108.967 105.137C108.839 105.523 108.685 105.838 108.503 106.083C108.324 106.324 108.155 106.513 107.996 106.649C107.945 106.695 107.896 106.74 107.851 106.786C107.805 106.831 107.757 106.877 107.706 106.922C107.411 107.22 107.053 107.441 106.632 107.583C106.214 107.725 105.803 107.796 105.396 107.796Z" fill="white"/>
<path d="M74.572 118.232C76.108 118.232 77.2707 118.563 78.06 119.224C78.8707 119.885 79.4253 120.771 79.724 121.88C80.0227 122.968 80.172 124.184 80.172 125.528V133.72C80.172 134.275 79.9907 134.744 79.628 135.128C79.2653 135.491 78.8067 135.672 78.252 135.672C77.6973 135.672 77.2387 135.491 76.876 135.128C76.5133 134.744 76.332 134.275 76.332 133.72V125.528C76.332 124.824 76.2467 124.195 76.076 123.64C75.9053 123.064 75.596 122.605 75.148 122.264C74.7 121.923 74.06 121.752 73.228 121.752C72.4173 121.752 71.724 121.923 71.148 122.264C70.572 122.605 70.1347 123.064 69.836 123.64C69.5587 124.195 69.42 124.824 69.42 125.528V133.72C69.42 134.275 69.2387 134.744 68.876 135.128C68.5133 135.491 68.0547 135.672 67.5 135.672C66.9453 135.672 66.4867 135.491 66.124 135.128C65.7613 134.744 65.58 134.275 65.58 133.72V113.944C65.58 113.389 65.7613 112.931 66.124 112.568C66.4867 112.184 66.9453 111.992 67.5 111.992C68.0547 111.992 68.5133 112.184 68.876 112.568C69.2387 112.931 69.42 113.389 69.42 113.944V121.88L68.94 121.784C69.132 121.421 69.3987 121.037 69.74 120.632C70.0813 120.205 70.4973 119.811 70.988 119.448C71.4787 119.085 72.0227 118.797 72.62 118.584C73.2173 118.349 73.868 118.232 74.572 118.232ZM92.394 135.992C90.5807 135.992 89.002 135.619 87.658 134.872C86.3353 134.104 85.3113 133.069 84.586 131.768C83.882 130.467 83.53 128.995 83.53 127.352C83.53 125.432 83.914 123.8 84.682 122.456C85.4713 121.091 86.4953 120.045 87.754 119.32C89.0127 118.595 90.346 118.232 91.754 118.232C92.842 118.232 93.866 118.456 94.826 118.904C95.8073 119.352 96.6713 119.971 97.418 120.76C98.1647 121.528 98.7513 122.424 99.178 123.448C99.626 124.472 99.85 125.56 99.85 126.712C99.8287 127.224 99.626 127.64 99.242 127.96C98.858 128.28 98.41 128.44 97.898 128.44H85.674L84.714 125.24H96.458L95.754 125.88V125.016C95.7113 124.397 95.4873 123.843 95.082 123.352C94.698 122.861 94.2073 122.477 93.61 122.2C93.034 121.901 92.4153 121.752 91.754 121.752C91.114 121.752 90.5167 121.837 89.962 122.008C89.4073 122.179 88.9273 122.467 88.522 122.872C88.1167 123.277 87.7967 123.821 87.562 124.504C87.3273 125.187 87.21 126.051 87.21 127.096C87.21 128.248 87.4447 129.229 87.914 130.04C88.4047 130.829 89.0233 131.437 89.77 131.864C90.538 132.269 91.3487 132.472 92.202 132.472C92.9913 132.472 93.6207 132.408 94.09 132.28C94.5593 132.152 94.9327 132.003 95.21 131.832C95.5087 131.64 95.7753 131.48 96.01 131.352C96.394 131.16 96.7567 131.064 97.098 131.064C97.5673 131.064 97.9513 131.224 98.25 131.544C98.57 131.864 98.73 132.237 98.73 132.664C98.73 133.24 98.4313 133.763 97.834 134.232C97.2793 134.701 96.5007 135.117 95.498 135.48C94.4953 135.821 93.4607 135.992 92.394 135.992ZM117.346 118.232C117.901 118.232 118.359 118.413 118.722 118.776C119.085 119.139 119.266 119.608 119.266 120.184V133.72C119.266 134.275 119.085 134.744 118.722 135.128C118.359 135.491 117.901 135.672 117.346 135.672C116.791 135.672 116.333 135.491 115.97 135.128C115.607 134.744 115.426 134.275 115.426 133.72V132.152L116.13 132.44C116.13 132.717 115.981 133.059 115.682 133.464C115.383 133.848 114.978 134.232 114.466 134.616C113.954 135 113.346 135.331 112.642 135.608C111.959 135.864 111.213 135.992 110.402 135.992C108.93 135.992 107.597 135.619 106.402 134.872C105.207 134.104 104.258 133.059 103.554 131.736C102.871 130.392 102.53 128.856 102.53 127.128C102.53 125.379 102.871 123.843 103.554 122.52C104.258 121.176 105.197 120.131 106.37 119.384C107.543 118.616 108.845 118.232 110.274 118.232C111.191 118.232 112.034 118.371 112.802 118.648C113.57 118.925 114.231 119.277 114.786 119.704C115.362 120.131 115.799 120.568 116.098 121.016C116.418 121.443 116.578 121.805 116.578 122.104L115.426 122.52V120.184C115.426 119.629 115.607 119.171 115.97 118.808C116.333 118.424 116.791 118.232 117.346 118.232ZM110.882 132.472C111.821 132.472 112.642 132.237 113.346 131.768C114.05 131.299 114.594 130.659 114.978 129.848C115.383 129.037 115.586 128.131 115.586 127.128C115.586 126.104 115.383 125.187 114.978 124.376C114.594 123.565 114.05 122.925 113.346 122.456C112.642 121.987 111.821 121.752 110.882 121.752C109.965 121.752 109.154 121.987 108.45 122.456C107.746 122.925 107.191 123.565 106.786 124.376C106.402 125.187 106.21 126.104 106.21 127.128C106.21 128.131 106.402 129.037 106.786 129.848C107.191 130.659 107.746 131.299 108.45 131.768C109.154 132.237 109.965 132.472 110.882 132.472ZM125.344 135.672C124.789 135.672 124.33 135.491 123.968 135.128C123.605 134.744 123.424 134.275 123.424 133.72V120.504C123.424 119.949 123.605 119.491 123.968 119.128C124.33 118.744 124.789 118.552 125.344 118.552C125.898 118.552 126.357 118.744 126.72 119.128C127.082 119.491 127.264 119.949 127.264 120.504V123.512L127.04 121.368C127.274 120.856 127.573 120.408 127.936 120.024C128.32 119.619 128.746 119.288 129.216 119.032C129.685 118.755 130.186 118.552 130.72 118.424C131.253 118.296 131.786 118.232 132.32 118.232C132.96 118.232 133.493 118.413 133.92 118.776C134.368 119.139 134.592 119.565 134.592 120.056C134.592 120.76 134.41 121.272 134.048 121.592C133.685 121.891 133.29 122.04 132.864 122.04C132.458 122.04 132.085 121.965 131.744 121.816C131.424 121.667 131.05 121.592 130.624 121.592C130.24 121.592 129.845 121.688 129.44 121.88C129.056 122.051 128.693 122.328 128.352 122.712C128.032 123.096 127.765 123.576 127.552 124.152C127.36 124.707 127.264 125.368 127.264 126.136V133.72C127.264 134.275 127.082 134.744 126.72 135.128C126.357 135.491 125.898 135.672 125.344 135.672ZM137.491 118.872H145.075C145.587 118.872 146.013 119.043 146.355 119.384C146.696 119.725 146.867 120.152 146.867 120.664C146.867 121.155 146.696 121.571 146.355 121.912C146.013 122.232 145.587 122.392 145.075 122.392H137.491C136.979 122.392 136.552 122.221 136.211 121.88C135.869 121.539 135.699 121.112 135.699 120.6C135.699 120.109 135.869 119.704 136.211 119.384C136.552 119.043 136.979 118.872 137.491 118.872ZM140.915 114.872C141.469 114.872 141.917 115.064 142.259 115.448C142.621 115.811 142.803 116.269 142.803 116.824V131.064C142.803 131.363 142.856 131.608 142.963 131.8C143.091 131.992 143.251 132.131 143.443 132.216C143.656 132.301 143.88 132.344 144.115 132.344C144.371 132.344 144.605 132.301 144.819 132.216C145.032 132.109 145.277 132.056 145.555 132.056C145.853 132.056 146.12 132.195 146.355 132.472C146.611 132.749 146.739 133.133 146.739 133.624C146.739 134.221 146.408 134.712 145.747 135.096C145.107 135.48 144.413 135.672 143.667 135.672C143.219 135.672 142.717 135.64 142.163 135.576C141.629 135.491 141.117 135.309 140.627 135.032C140.157 134.733 139.763 134.285 139.443 133.688C139.123 133.091 138.963 132.269 138.963 131.224V116.824C138.963 116.269 139.144 115.811 139.507 115.448C139.891 115.064 140.36 114.872 140.915 114.872Z" fill="white"/>
<path d="M116.865 159.598C117.239 158.933 117.551 158.334 117.743 157.877C118.677 155.662 117.754 153.113 115.497 152.073C113.24 151.034 110.973 152.112 109.979 154.193C108.076 152.888 105.539 153.08 104.14 155.116C102.74 157.153 103.18 159.814 105.096 161.266C105.966 161.925 107.686 162.896 109.306 163.761M101.921 164.613C104.68 165.617 105.577 168.917 104.686 171.366C102.881 176.326 93.711 177.588 93.5718 177.537C93.4326 177.486 87.2192 170.626 89.0244 165.666C89.9158 163.217 92.7246 161.266 95.4828 162.27C97.0663 162.846 97.8099 164.025 98.1538 164.948C99.0107 164.462 100.338 164.037 101.921 164.613ZM117.617 161.422C117.195 159.154 115.265 157.495 112.835 157.946C110.406 158.397 108.835 160.589 109.163 162.971C109.427 164.885 110.884 169.375 111.446 171.066C111.523 171.297 111.561 171.412 111.637 171.493C111.704 171.563 111.792 171.614 111.885 171.636C111.993 171.662 112.112 171.637 112.35 171.588C114.096 171.23 118.713 170.246 120.502 169.518C122.729 168.611 123.879 166.156 123.018 163.825C122.157 161.494 119.792 160.654 117.617 161.422Z" stroke="#F6C8A2" stroke-opacity="0.25" stroke-width="2" stroke-linecap="round" stroke-linejoin="round"/>
<defs>
<radialGradient id="paint0_radial_47_68" cx="0" cy="0" r="1" gradientUnits="userSpaceOnUse" gradientTransform="translate(212 2.52724e-05) rotate(135) scale(299.813 299.813)">
<stop stop-color="#0E558B"/>
<stop offset="1" stop-color="#8A0F2A"/>
</radialGradient>
</defs>
</svg>
